<mxfile host="app.diagrams.net" agent="Mozilla/5.0 (Windows NT 10.0; Win64; x64) AppleWebKit/537.36 (KHTML, like Gecko) Chrome/139.0.0.0 Safari/537.36 Edg/139.0.0.0" version="28.1.2">
  <diagram name="Page-1" id="FB3lRole5Ftdzom9h0Im">
    <mxGraphModel dx="2058" dy="1150" grid="1" gridSize="10" guides="1" tooltips="1" connect="1" arrows="1" fold="1" page="1" pageScale="1" pageWidth="850" pageHeight="1100" math="0" shadow="0">
      <root>
        <mxCell id="0" />
        <mxCell id="1" parent="0" />
        <mxCell id="StEbUSWQVTcC6LIIxTnS-2" value="" style="verticalLabelPosition=bottom;verticalAlign=top;html=1;shadow=0;dashed=0;strokeWidth=1;shape=mxgraph.android.phone2;strokeColor=#c0c0c0;" vertex="1" parent="1">
          <mxGeometry x="270" y="170" width="353.85" height="730" as="geometry" />
        </mxCell>
        <mxCell id="StEbUSWQVTcC6LIIxTnS-6" value="FixIt" style="rounded=1;whiteSpace=wrap;html=1;fontSize=37;" vertex="1" parent="1">
          <mxGeometry x="290" y="240" width="310" height="60" as="geometry" />
        </mxCell>
        <mxCell id="StEbUSWQVTcC6LIIxTnS-7" value="" style="rounded=1;whiteSpace=wrap;html=1;" vertex="1" parent="1">
          <mxGeometry x="290" y="620" width="320" height="180" as="geometry" />
        </mxCell>
        <mxCell id="StEbUSWQVTcC6LIIxTnS-9" value="What is the device?" style="rounded=1;whiteSpace=wrap;html=1;" vertex="1" parent="1">
          <mxGeometry x="290" y="310" width="120" height="30" as="geometry" />
        </mxCell>
        <mxCell id="StEbUSWQVTcC6LIIxTnS-10" value="Describe the problem" style="rounded=1;whiteSpace=wrap;html=1;" vertex="1" parent="1">
          <mxGeometry x="290" y="350" width="300" height="80" as="geometry" />
        </mxCell>
        <mxCell id="StEbUSWQVTcC6LIIxTnS-12" value="Photo of issue&lt;div&gt;&amp;nbsp;(optional)&lt;/div&gt;" style="rounded=1;whiteSpace=wrap;html=1;align=left;" vertex="1" parent="1">
          <mxGeometry x="460" y="300" width="130" height="50" as="geometry" />
        </mxCell>
        <mxCell id="StEbUSWQVTcC6LIIxTnS-11" value="" style="shape=mxgraph.signs.tech.camera_2;html=1;pointerEvents=1;fillColor=#000000;strokeColor=none;verticalLabelPosition=bottom;verticalAlign=top;align=center;" vertex="1" parent="1">
          <mxGeometry x="540" y="306.82" width="50" height="36.36" as="geometry" />
        </mxCell>
        <mxCell id="StEbUSWQVTcC6LIIxTnS-13" value="Debug it&lt;div&gt;(button)&lt;/div&gt;" style="rounded=1;whiteSpace=wrap;html=1;fontSize=20;" vertex="1" parent="1">
          <mxGeometry x="345.96999999999997" y="500" width="198.07" height="50" as="geometry" />
        </mxCell>
        <mxCell id="StEbUSWQVTcC6LIIxTnS-15" value="Potential Issue #1" style="text;html=1;align=center;verticalAlign=middle;whiteSpace=wrap;rounded=0;" vertex="1" parent="1">
          <mxGeometry x="297" y="620" width="100" height="30" as="geometry" />
        </mxCell>
        <mxCell id="StEbUSWQVTcC6LIIxTnS-16" value="" style="triangle;whiteSpace=wrap;html=1;rotation=90;fillColor=#000000;" vertex="1" parent="1">
          <mxGeometry x="405.33" y="621.67" width="20" height="26.67" as="geometry" />
        </mxCell>
        <mxCell id="StEbUSWQVTcC6LIIxTnS-17" value="" style="endArrow=none;html=1;rounded=0;" edge="1" parent="1">
          <mxGeometry width="50" height="50" relative="1" as="geometry">
            <mxPoint x="290" y="650" as="sourcePoint" />
            <mxPoint x="610" y="650" as="targetPoint" />
          </mxGeometry>
        </mxCell>
        <mxCell id="StEbUSWQVTcC6LIIxTnS-18" value="Issue summary" style="text;html=1;align=center;verticalAlign=middle;whiteSpace=wrap;rounded=0;" vertex="1" parent="1">
          <mxGeometry x="315" y="650" width="260" height="30" as="geometry" />
        </mxCell>
        <mxCell id="StEbUSWQVTcC6LIIxTnS-19" value="Common symptions (to check if this is your issue)" style="text;html=1;align=center;verticalAlign=middle;whiteSpace=wrap;rounded=0;" vertex="1" parent="1">
          <mxGeometry x="316.93" y="710" width="260" height="30" as="geometry" />
        </mxCell>
        <mxCell id="StEbUSWQVTcC6LIIxTnS-21" value="" style="rounded=1;whiteSpace=wrap;html=1;" vertex="1" parent="1">
          <mxGeometry x="290" y="800" width="320" height="40" as="geometry" />
        </mxCell>
        <mxCell id="StEbUSWQVTcC6LIIxTnS-22" value="Potential Issue #2" style="text;html=1;align=center;verticalAlign=middle;whiteSpace=wrap;rounded=0;" vertex="1" parent="1">
          <mxGeometry x="297" y="805" width="100" height="30" as="geometry" />
        </mxCell>
        <mxCell id="StEbUSWQVTcC6LIIxTnS-23" value="" style="triangle;whiteSpace=wrap;html=1;rotation=0;fillColor=#000000;" vertex="1" parent="1">
          <mxGeometry x="405.3299999999999" y="806.67" width="20" height="26.67" as="geometry" />
        </mxCell>
        <mxCell id="StEbUSWQVTcC6LIIxTnS-24" value="Click to expand information" style="text;html=1;align=center;verticalAlign=middle;whiteSpace=wrap;rounded=0;fontStyle=2" vertex="1" parent="1">
          <mxGeometry x="430" y="805" width="60" height="30" as="geometry" />
        </mxCell>
        <mxCell id="StEbUSWQVTcC6LIIxTnS-25" value="Steps to fix" style="text;html=1;align=center;verticalAlign=middle;whiteSpace=wrap;rounded=0;" vertex="1" parent="1">
          <mxGeometry x="316.93" y="770" width="260" height="30" as="geometry" />
        </mxCell>
      </root>
    </mxGraphModel>
  </diagram>
</mxfile>
